<mxfile host="app.diagrams.net" modified="2020-03-29T16:00:07.454Z" agent="Mozilla/5.0 (Windows NT 10.0; Win64; x64) AppleWebKit/537.36 (KHTML, like Gecko) Chrome/80.0.3987.149 Safari/537.36" etag="PLZvGA9vC1iJPmIhi59e" version="12.8.8" type="github">
  <diagram id="EvPxnbADvzkmD2MDQRhz" name="Page-1">
    <mxGraphModel dx="2150" dy="659" grid="1" gridSize="10" guides="1" tooltips="1" connect="1" arrows="1" fold="1" page="1" pageScale="1" pageWidth="827" pageHeight="1169" math="0" shadow="0">
      <root>
        <mxCell id="0" />
        <mxCell id="1" parent="0" />
        <mxCell id="ZajGLMz7-wL5BJP9ULkT-1" value="" style="edgeStyle=orthogonalEdgeStyle;rounded=0;orthogonalLoop=1;jettySize=auto;html=1;fontFamily=Times New Roman;fontSize=18;fontColor=#000000;" parent="1" source="ZajGLMz7-wL5BJP9ULkT-2" target="ZajGLMz7-wL5BJP9ULkT-4" edge="1">
          <mxGeometry relative="1" as="geometry" />
        </mxCell>
        <mxCell id="ZajGLMz7-wL5BJP9ULkT-2" value="&lt;font style=&quot;font-size: 18px;&quot;&gt;conv1&lt;/font&gt;" style="rounded=0;whiteSpace=wrap;html=1;fontFamily=Times New Roman;fontSize=18;fontColor=#000000;" parent="1" vertex="1">
          <mxGeometry x="150" y="200" width="120" height="60" as="geometry" />
        </mxCell>
        <mxCell id="ZajGLMz7-wL5BJP9ULkT-3" value="" style="edgeStyle=orthogonalEdgeStyle;rounded=0;orthogonalLoop=1;jettySize=auto;html=1;fontFamily=Times New Roman;fontSize=18;fontColor=#000000;" parent="1" source="ZajGLMz7-wL5BJP9ULkT-4" target="ZajGLMz7-wL5BJP9ULkT-6" edge="1">
          <mxGeometry relative="1" as="geometry" />
        </mxCell>
        <mxCell id="ZajGLMz7-wL5BJP9ULkT-4" value="&lt;font style=&quot;font-size: 18px;&quot;&gt;conv2&lt;/font&gt;" style="rounded=0;whiteSpace=wrap;html=1;fontFamily=Times New Roman;fontSize=18;fontColor=#000000;" parent="1" vertex="1">
          <mxGeometry x="310" y="200" width="120" height="60" as="geometry" />
        </mxCell>
        <mxCell id="jn1oiLaQo4bSt4MqMUwo-49" value="" style="edgeStyle=orthogonalEdgeStyle;rounded=0;orthogonalLoop=1;jettySize=auto;html=1;endArrow=none;endFill=0;fontFamily=Times New Roman;fontSize=18;fontColor=#000000;" edge="1" parent="1">
          <mxGeometry relative="1" as="geometry">
            <mxPoint x="630" y="201" as="sourcePoint" />
            <mxPoint x="664" y="282" as="targetPoint" />
          </mxGeometry>
        </mxCell>
        <mxCell id="ZajGLMz7-wL5BJP9ULkT-6" value="BLSTM" style="rounded=0;whiteSpace=wrap;html=1;fontFamily=Times New Roman;fontSize=18;fontColor=#000000;" parent="1" vertex="1">
          <mxGeometry x="469" y="200" width="120" height="60" as="geometry" />
        </mxCell>
        <mxCell id="jn1oiLaQo4bSt4MqMUwo-40" value="" style="edgeStyle=orthogonalEdgeStyle;rounded=0;orthogonalLoop=1;jettySize=auto;html=1;endArrow=classic;endFill=1;fontFamily=Times New Roman;fontSize=18;fontColor=#000000;" edge="1" parent="1" source="jn1oiLaQo4bSt4MqMUwo-36" target="ZajGLMz7-wL5BJP9ULkT-16">
          <mxGeometry relative="1" as="geometry" />
        </mxCell>
        <mxCell id="jn1oiLaQo4bSt4MqMUwo-36" value="均值池化" style="rounded=0;whiteSpace=wrap;html=1;fontFamily=Times New Roman;fontSize=18;fontColor=#000000;" vertex="1" parent="1">
          <mxGeometry x="699" y="251" width="120" height="60" as="geometry" />
        </mxCell>
        <mxCell id="ZajGLMz7-wL5BJP9ULkT-7" value="" style="edgeStyle=orthogonalEdgeStyle;rounded=0;orthogonalLoop=1;jettySize=auto;html=1;fontFamily=Times New Roman;fontSize=18;fontColor=#000000;" parent="1" source="ZajGLMz7-wL5BJP9ULkT-8" target="ZajGLMz7-wL5BJP9ULkT-2" edge="1">
          <mxGeometry relative="1" as="geometry" />
        </mxCell>
        <mxCell id="ZajGLMz7-wL5BJP9ULkT-8" value="" style="shape=cube;whiteSpace=wrap;html=1;boundedLbl=1;backgroundOutline=1;darkOpacity=0.05;darkOpacity2=0.1;direction=south;fontFamily=Times New Roman;fontSize=18;fontColor=#000000;" parent="1" vertex="1">
          <mxGeometry x="-10" y="205" width="130" height="50" as="geometry" />
        </mxCell>
        <mxCell id="ZajGLMz7-wL5BJP9ULkT-9" value="" style="edgeStyle=orthogonalEdgeStyle;rounded=0;orthogonalLoop=1;jettySize=auto;html=1;fontFamily=Times New Roman;fontSize=18;fontColor=#000000;" parent="1" source="ZajGLMz7-wL5BJP9ULkT-10" target="ZajGLMz7-wL5BJP9ULkT-12" edge="1">
          <mxGeometry relative="1" as="geometry" />
        </mxCell>
        <mxCell id="ZajGLMz7-wL5BJP9ULkT-10" value="&lt;font style=&quot;font-size: 18px;&quot;&gt;conv1&lt;/font&gt;" style="rounded=0;whiteSpace=wrap;html=1;fontFamily=Times New Roman;fontSize=18;fontColor=#000000;" parent="1" vertex="1">
          <mxGeometry x="150" y="295" width="120" height="60" as="geometry" />
        </mxCell>
        <mxCell id="ZajGLMz7-wL5BJP9ULkT-11" value="" style="edgeStyle=orthogonalEdgeStyle;rounded=0;orthogonalLoop=1;jettySize=auto;html=1;fontFamily=Times New Roman;fontSize=18;fontColor=#000000;" parent="1" source="ZajGLMz7-wL5BJP9ULkT-12" target="ZajGLMz7-wL5BJP9ULkT-14" edge="1">
          <mxGeometry relative="1" as="geometry" />
        </mxCell>
        <mxCell id="ZajGLMz7-wL5BJP9ULkT-12" value="&lt;font style=&quot;font-size: 18px;&quot;&gt;conv2&lt;/font&gt;" style="rounded=0;whiteSpace=wrap;html=1;fontFamily=Times New Roman;fontSize=18;fontColor=#000000;" parent="1" vertex="1">
          <mxGeometry x="310" y="295" width="120" height="60" as="geometry" />
        </mxCell>
        <mxCell id="jn1oiLaQo4bSt4MqMUwo-39" style="edgeStyle=orthogonalEdgeStyle;rounded=0;orthogonalLoop=1;jettySize=auto;html=1;entryX=0;entryY=0.5;entryDx=0;entryDy=0;endArrow=classic;endFill=1;fontFamily=Times New Roman;fontSize=18;fontColor=#000000;" edge="1" parent="1" target="jn1oiLaQo4bSt4MqMUwo-36">
          <mxGeometry relative="1" as="geometry">
            <mxPoint x="630" y="360" as="sourcePoint" />
          </mxGeometry>
        </mxCell>
        <mxCell id="ZajGLMz7-wL5BJP9ULkT-14" value="BLSTM" style="rounded=0;whiteSpace=wrap;html=1;fontFamily=Times New Roman;fontSize=18;fontColor=#000000;" parent="1" vertex="1">
          <mxGeometry x="469" y="295" width="120" height="60" as="geometry" />
        </mxCell>
        <mxCell id="ZajGLMz7-wL5BJP9ULkT-15" value="" style="edgeStyle=orthogonalEdgeStyle;rounded=0;orthogonalLoop=1;jettySize=auto;html=1;fontFamily=Times New Roman;fontSize=18;fontColor=#000000;" parent="1" source="ZajGLMz7-wL5BJP9ULkT-16" target="ZajGLMz7-wL5BJP9ULkT-17" edge="1">
          <mxGeometry relative="1" as="geometry" />
        </mxCell>
        <mxCell id="ZajGLMz7-wL5BJP9ULkT-16" value="全连接" style="rounded=0;whiteSpace=wrap;html=1;fontFamily=Times New Roman;fontSize=18;fontColor=#000000;" parent="1" vertex="1">
          <mxGeometry x="872" y="251" width="120" height="60" as="geometry" />
        </mxCell>
        <mxCell id="ZajGLMz7-wL5BJP9ULkT-17" value="结果" style="rounded=0;whiteSpace=wrap;html=1;fontFamily=Times New Roman;fontSize=18;fontColor=#000000;" parent="1" vertex="1">
          <mxGeometry x="1032" y="211" width="30" height="140" as="geometry" />
        </mxCell>
        <mxCell id="ZajGLMz7-wL5BJP9ULkT-18" value="" style="edgeStyle=orthogonalEdgeStyle;rounded=0;orthogonalLoop=1;jettySize=auto;html=1;fontFamily=Times New Roman;fontSize=18;fontColor=#000000;" parent="1" source="ZajGLMz7-wL5BJP9ULkT-19" target="ZajGLMz7-wL5BJP9ULkT-10" edge="1">
          <mxGeometry relative="1" as="geometry" />
        </mxCell>
        <mxCell id="ZajGLMz7-wL5BJP9ULkT-19" value="" style="shape=cube;whiteSpace=wrap;html=1;boundedLbl=1;backgroundOutline=1;darkOpacity=0.05;darkOpacity2=0.1;direction=south;fontFamily=Times New Roman;fontSize=18;fontColor=#000000;" parent="1" vertex="1">
          <mxGeometry x="-10" y="300" width="130" height="50" as="geometry" />
        </mxCell>
        <mxCell id="ZajGLMz7-wL5BJP9ULkT-20" value="手腕传感器数据6*200" style="text;html=1;strokeColor=none;fillColor=none;align=center;verticalAlign=middle;whiteSpace=wrap;rounded=0;fontFamily=Times New Roman;fontSize=18;fontColor=#000000;" parent="1" vertex="1">
          <mxGeometry x="-20" y="271" width="135" height="20" as="geometry" />
        </mxCell>
        <mxCell id="ZajGLMz7-wL5BJP9ULkT-21" value="下肢传感器数据6*200" style="text;html=1;strokeColor=none;fillColor=none;align=center;verticalAlign=middle;whiteSpace=wrap;rounded=0;fontFamily=Times New Roman;fontSize=18;fontColor=#000000;" parent="1" vertex="1">
          <mxGeometry x="-20" y="369" width="135" height="20" as="geometry" />
        </mxCell>
        <mxCell id="jn1oiLaQo4bSt4MqMUwo-6" value="" style="edgeStyle=orthogonalEdgeStyle;rounded=0;orthogonalLoop=1;jettySize=auto;html=1;fontFamily=Times New Roman;fontSize=18;" edge="1" parent="1" source="jn1oiLaQo4bSt4MqMUwo-7" target="jn1oiLaQo4bSt4MqMUwo-9">
          <mxGeometry relative="1" as="geometry" />
        </mxCell>
        <mxCell id="jn1oiLaQo4bSt4MqMUwo-7" value="&lt;font style=&quot;font-size: 18px;&quot;&gt;conv1&lt;/font&gt;" style="rounded=0;whiteSpace=wrap;html=1;fontFamily=Times New Roman;fontSize=18;" vertex="1" parent="1">
          <mxGeometry x="200" y="840" width="120" height="60" as="geometry" />
        </mxCell>
        <mxCell id="jn1oiLaQo4bSt4MqMUwo-8" value="" style="edgeStyle=orthogonalEdgeStyle;rounded=0;orthogonalLoop=1;jettySize=auto;html=1;fontFamily=Times New Roman;fontSize=18;" edge="1" parent="1" source="jn1oiLaQo4bSt4MqMUwo-9" target="jn1oiLaQo4bSt4MqMUwo-11">
          <mxGeometry relative="1" as="geometry" />
        </mxCell>
        <mxCell id="jn1oiLaQo4bSt4MqMUwo-9" value="&lt;font style=&quot;font-size: 18px;&quot;&gt;conv2&lt;/font&gt;" style="rounded=0;whiteSpace=wrap;html=1;fontFamily=Times New Roman;fontSize=18;" vertex="1" parent="1">
          <mxGeometry x="360" y="840" width="120" height="60" as="geometry" />
        </mxCell>
        <mxCell id="jn1oiLaQo4bSt4MqMUwo-10" value="" style="edgeStyle=orthogonalEdgeStyle;rounded=0;orthogonalLoop=1;jettySize=auto;html=1;fontFamily=Times New Roman;fontSize=18;" edge="1" parent="1" source="jn1oiLaQo4bSt4MqMUwo-11" target="jn1oiLaQo4bSt4MqMUwo-21">
          <mxGeometry relative="1" as="geometry" />
        </mxCell>
        <mxCell id="jn1oiLaQo4bSt4MqMUwo-11" value="BLSTM" style="rounded=0;whiteSpace=wrap;html=1;fontFamily=Times New Roman;fontSize=18;" vertex="1" parent="1">
          <mxGeometry x="519" y="840" width="120" height="60" as="geometry" />
        </mxCell>
        <mxCell id="jn1oiLaQo4bSt4MqMUwo-12" value="" style="edgeStyle=orthogonalEdgeStyle;rounded=0;orthogonalLoop=1;jettySize=auto;html=1;fontFamily=Times New Roman;fontSize=18;" edge="1" parent="1" source="jn1oiLaQo4bSt4MqMUwo-13" target="jn1oiLaQo4bSt4MqMUwo-7">
          <mxGeometry relative="1" as="geometry" />
        </mxCell>
        <mxCell id="jn1oiLaQo4bSt4MqMUwo-13" value="" style="shape=cube;whiteSpace=wrap;html=1;boundedLbl=1;backgroundOutline=1;darkOpacity=0.05;darkOpacity2=0.1;direction=south;fontFamily=Times New Roman;fontSize=18;" vertex="1" parent="1">
          <mxGeometry x="40" y="845" width="130" height="50" as="geometry" />
        </mxCell>
        <mxCell id="jn1oiLaQo4bSt4MqMUwo-14" value="" style="edgeStyle=orthogonalEdgeStyle;rounded=0;orthogonalLoop=1;jettySize=auto;html=1;fontFamily=Times New Roman;fontSize=18;" edge="1" parent="1" source="jn1oiLaQo4bSt4MqMUwo-15" target="jn1oiLaQo4bSt4MqMUwo-17">
          <mxGeometry relative="1" as="geometry" />
        </mxCell>
        <mxCell id="jn1oiLaQo4bSt4MqMUwo-15" value="&lt;font style=&quot;font-size: 18px;&quot;&gt;conv1&lt;/font&gt;" style="rounded=0;whiteSpace=wrap;html=1;fontFamily=Times New Roman;fontSize=18;" vertex="1" parent="1">
          <mxGeometry x="200" y="935" width="120" height="60" as="geometry" />
        </mxCell>
        <mxCell id="jn1oiLaQo4bSt4MqMUwo-16" value="" style="edgeStyle=orthogonalEdgeStyle;rounded=0;orthogonalLoop=1;jettySize=auto;html=1;fontFamily=Times New Roman;fontSize=18;" edge="1" parent="1" source="jn1oiLaQo4bSt4MqMUwo-17" target="jn1oiLaQo4bSt4MqMUwo-19">
          <mxGeometry relative="1" as="geometry" />
        </mxCell>
        <mxCell id="jn1oiLaQo4bSt4MqMUwo-17" value="&lt;font style=&quot;font-size: 18px;&quot;&gt;conv2&lt;/font&gt;" style="rounded=0;whiteSpace=wrap;html=1;fontFamily=Times New Roman;fontSize=18;" vertex="1" parent="1">
          <mxGeometry x="360" y="935" width="120" height="60" as="geometry" />
        </mxCell>
        <mxCell id="jn1oiLaQo4bSt4MqMUwo-18" value="" style="edgeStyle=orthogonalEdgeStyle;rounded=0;orthogonalLoop=1;jettySize=auto;html=1;fontFamily=Times New Roman;fontSize=18;" edge="1" parent="1" source="jn1oiLaQo4bSt4MqMUwo-19" target="jn1oiLaQo4bSt4MqMUwo-21">
          <mxGeometry relative="1" as="geometry" />
        </mxCell>
        <mxCell id="jn1oiLaQo4bSt4MqMUwo-19" value="BLSTM" style="rounded=0;whiteSpace=wrap;html=1;fontFamily=Times New Roman;fontSize=18;" vertex="1" parent="1">
          <mxGeometry x="519" y="935" width="120" height="60" as="geometry" />
        </mxCell>
        <mxCell id="jn1oiLaQo4bSt4MqMUwo-20" value="" style="edgeStyle=orthogonalEdgeStyle;rounded=0;orthogonalLoop=1;jettySize=auto;html=1;fontFamily=Times New Roman;fontSize=18;" edge="1" parent="1" source="jn1oiLaQo4bSt4MqMUwo-21" target="jn1oiLaQo4bSt4MqMUwo-22">
          <mxGeometry relative="1" as="geometry" />
        </mxCell>
        <mxCell id="jn1oiLaQo4bSt4MqMUwo-21" value="全连接" style="rounded=0;whiteSpace=wrap;html=1;fontFamily=Times New Roman;fontSize=18;" vertex="1" parent="1">
          <mxGeometry x="709" y="886" width="120" height="60" as="geometry" />
        </mxCell>
        <mxCell id="jn1oiLaQo4bSt4MqMUwo-22" value="结果" style="rounded=0;whiteSpace=wrap;html=1;fontFamily=Times New Roman;fontSize=18;" vertex="1" parent="1">
          <mxGeometry x="869" y="846" width="30" height="140" as="geometry" />
        </mxCell>
        <mxCell id="jn1oiLaQo4bSt4MqMUwo-23" value="" style="edgeStyle=orthogonalEdgeStyle;rounded=0;orthogonalLoop=1;jettySize=auto;html=1;fontFamily=Times New Roman;fontSize=18;" edge="1" parent="1" source="jn1oiLaQo4bSt4MqMUwo-24" target="jn1oiLaQo4bSt4MqMUwo-15">
          <mxGeometry relative="1" as="geometry" />
        </mxCell>
        <mxCell id="jn1oiLaQo4bSt4MqMUwo-24" value="" style="shape=cube;whiteSpace=wrap;html=1;boundedLbl=1;backgroundOutline=1;darkOpacity=0.05;darkOpacity2=0.1;direction=south;fontFamily=Times New Roman;fontSize=18;" vertex="1" parent="1">
          <mxGeometry x="40" y="940" width="130" height="50" as="geometry" />
        </mxCell>
        <mxCell id="jn1oiLaQo4bSt4MqMUwo-25" value="手腕传感器数据6*200" style="text;html=1;strokeColor=none;fillColor=none;align=center;verticalAlign=middle;whiteSpace=wrap;rounded=0;fontFamily=Times New Roman;fontSize=18;" vertex="1" parent="1">
          <mxGeometry x="30" y="911" width="135" height="20" as="geometry" />
        </mxCell>
        <mxCell id="jn1oiLaQo4bSt4MqMUwo-26" value="下肢传感器数据6*200" style="text;html=1;strokeColor=none;fillColor=none;align=center;verticalAlign=middle;whiteSpace=wrap;rounded=0;fontFamily=Times New Roman;fontSize=18;" vertex="1" parent="1">
          <mxGeometry x="30" y="1009" width="135" height="20" as="geometry" />
        </mxCell>
        <mxCell id="jn1oiLaQo4bSt4MqMUwo-33" value="特征结合" style="text;html=1;strokeColor=none;fillColor=none;align=center;verticalAlign=middle;whiteSpace=wrap;rounded=0;fontFamily=Times New Roman;fontSize=18;" vertex="1" parent="1">
          <mxGeometry x="768" y="650" width="101" height="20" as="geometry" />
        </mxCell>
        <mxCell id="jn1oiLaQo4bSt4MqMUwo-43" value="" style="endArrow=none;html=1;fontFamily=Times New Roman;fontSize=18;exitX=0.5;exitY=1;exitDx=0;exitDy=0;entryX=1;entryY=0.5;entryDx=0;entryDy=0;fontColor=#000000;" edge="1" parent="1" source="ZajGLMz7-wL5BJP9ULkT-12" target="ZajGLMz7-wL5BJP9ULkT-14">
          <mxGeometry width="50" height="50" relative="1" as="geometry">
            <mxPoint x="369" y="450" as="sourcePoint" />
            <mxPoint x="630" y="325" as="targetPoint" />
            <Array as="points">
              <mxPoint x="370" y="390" />
              <mxPoint x="630" y="390" />
              <mxPoint x="630" y="325" />
            </Array>
          </mxGeometry>
        </mxCell>
        <mxCell id="jn1oiLaQo4bSt4MqMUwo-51" value="卷积特征" style="text;html=1;align=center;verticalAlign=middle;resizable=0;points=[];labelBackgroundColor=#ffffff;fontSize=18;fontFamily=Times New Roman;fontColor=#000000;" vertex="1" connectable="0" parent="jn1oiLaQo4bSt4MqMUwo-43">
          <mxGeometry x="-0.3807" y="-2" relative="1" as="geometry">
            <mxPoint x="40.86" y="-3" as="offset" />
          </mxGeometry>
        </mxCell>
        <mxCell id="jn1oiLaQo4bSt4MqMUwo-46" value="" style="endArrow=none;html=1;fontFamily=Times New Roman;fontSize=18;exitX=0.5;exitY=0;exitDx=0;exitDy=0;fontColor=#000000;" edge="1" parent="1" source="ZajGLMz7-wL5BJP9ULkT-4">
          <mxGeometry width="50" height="50" relative="1" as="geometry">
            <mxPoint x="390" y="120" as="sourcePoint" />
            <mxPoint x="590" y="230" as="targetPoint" />
            <Array as="points">
              <mxPoint x="370" y="160" />
              <mxPoint x="630" y="160" />
              <mxPoint x="630" y="230" />
            </Array>
          </mxGeometry>
        </mxCell>
        <mxCell id="jn1oiLaQo4bSt4MqMUwo-50" value="卷积特征" style="text;html=1;align=center;verticalAlign=middle;resizable=0;points=[];labelBackgroundColor=#ffffff;fontSize=18;fontFamily=Times New Roman;fontColor=#000000;" vertex="1" connectable="0" parent="jn1oiLaQo4bSt4MqMUwo-46">
          <mxGeometry x="-0.3632" y="2" relative="1" as="geometry">
            <mxPoint x="39.66" as="offset" />
          </mxGeometry>
        </mxCell>
        <mxCell id="jn1oiLaQo4bSt4MqMUwo-52" value="多尺度特征结合" style="text;html=1;strokeColor=none;fillColor=none;align=center;verticalAlign=middle;whiteSpace=wrap;rounded=0;fontFamily=Times New Roman;fontSize=18;fontColor=#000000;" vertex="1" parent="1">
          <mxGeometry x="630" y="180" width="131" height="20" as="geometry" />
        </mxCell>
        <mxCell id="jn1oiLaQo4bSt4MqMUwo-53" value="多尺度特征结合" style="text;html=1;strokeColor=none;fillColor=none;align=center;verticalAlign=middle;whiteSpace=wrap;rounded=0;fontFamily=Times New Roman;fontSize=18;fontColor=#000000;" vertex="1" parent="1">
          <mxGeometry x="630" y="364" width="131" height="20" as="geometry" />
        </mxCell>
        <mxCell id="jn1oiLaQo4bSt4MqMUwo-83" value="" style="edgeStyle=orthogonalEdgeStyle;rounded=0;orthogonalLoop=1;jettySize=auto;html=1;endArrow=classic;endFill=1;fontFamily=Times New Roman;fontSize=22;fontColor=#000000;" edge="1" parent="1" source="jn1oiLaQo4bSt4MqMUwo-56" target="jn1oiLaQo4bSt4MqMUwo-59">
          <mxGeometry relative="1" as="geometry" />
        </mxCell>
        <mxCell id="jn1oiLaQo4bSt4MqMUwo-56" value="混合网络" style="rounded=0;whiteSpace=wrap;html=1;fontFamily=Times New Roman;fontSize=22;fontColor=#000000;" vertex="1" parent="1">
          <mxGeometry x="294" y="1632" width="120" height="60" as="geometry" />
        </mxCell>
        <mxCell id="jn1oiLaQo4bSt4MqMUwo-69" value="" style="edgeStyle=orthogonalEdgeStyle;rounded=0;orthogonalLoop=1;jettySize=auto;html=1;endArrow=classic;endFill=1;fontFamily=Times New Roman;fontSize=22;fontColor=#000000;" edge="1" parent="1" source="jn1oiLaQo4bSt4MqMUwo-59" target="jn1oiLaQo4bSt4MqMUwo-68">
          <mxGeometry relative="1" as="geometry" />
        </mxCell>
        <mxCell id="jn1oiLaQo4bSt4MqMUwo-59" value="多尺度特征结合" style="rounded=0;whiteSpace=wrap;html=1;fontFamily=Times New Roman;fontSize=22;fontColor=#000000;" vertex="1" parent="1">
          <mxGeometry x="294" y="1732" width="120" height="60" as="geometry" />
        </mxCell>
        <mxCell id="jn1oiLaQo4bSt4MqMUwo-110" value="" style="edgeStyle=orthogonalEdgeStyle;rounded=0;orthogonalLoop=1;jettySize=auto;html=1;endArrow=classic;endFill=1;fontFamily=Times New Roman;fontSize=22;fontColor=#000000;entryX=0.5;entryY=0;entryDx=0;entryDy=0;" edge="1" parent="1" source="jn1oiLaQo4bSt4MqMUwo-68" target="jn1oiLaQo4bSt4MqMUwo-72">
          <mxGeometry relative="1" as="geometry">
            <mxPoint x="280" y="1970" as="targetPoint" />
          </mxGeometry>
        </mxCell>
        <mxCell id="jn1oiLaQo4bSt4MqMUwo-68" value="特征融合" style="rounded=0;whiteSpace=wrap;html=1;fontFamily=Times New Roman;fontSize=22;fontColor=#000000;" vertex="1" parent="1">
          <mxGeometry x="220" y="1860" width="120" height="60" as="geometry" />
        </mxCell>
        <mxCell id="jn1oiLaQo4bSt4MqMUwo-74" value="" style="edgeStyle=orthogonalEdgeStyle;rounded=0;orthogonalLoop=1;jettySize=auto;html=1;endArrow=none;endFill=0;fontFamily=Times New Roman;fontSize=22;fontColor=#000000;exitX=0.5;exitY=1;exitDx=0;exitDy=0;" edge="1" parent="1" source="jn1oiLaQo4bSt4MqMUwo-64">
          <mxGeometry relative="1" as="geometry">
            <mxPoint x="494" y="1810" as="sourcePoint" />
            <mxPoint x="354" y="1826" as="targetPoint" />
            <Array as="points">
              <mxPoint x="500" y="1826" />
            </Array>
          </mxGeometry>
        </mxCell>
        <mxCell id="jn1oiLaQo4bSt4MqMUwo-64" value="特征提取与选择" style="rounded=0;whiteSpace=wrap;html=1;fontFamily=Times New Roman;fontSize=22;fontColor=#000000;" vertex="1" parent="1">
          <mxGeometry x="440" y="1700" width="120" height="60" as="geometry" />
        </mxCell>
        <mxCell id="jn1oiLaQo4bSt4MqMUwo-72" value="复杂行为类型" style="text;html=1;strokeColor=none;fillColor=none;align=center;verticalAlign=middle;whiteSpace=wrap;rounded=0;fontFamily=Times New Roman;fontSize=22;fontColor=#000000;" vertex="1" parent="1">
          <mxGeometry x="197" y="1960" width="166" height="20" as="geometry" />
        </mxCell>
        <mxCell id="jn1oiLaQo4bSt4MqMUwo-85" value="" style="edgeStyle=orthogonalEdgeStyle;rounded=0;orthogonalLoop=1;jettySize=auto;html=1;endArrow=classic;endFill=1;fontFamily=Times New Roman;fontSize=22;fontColor=#000000;" edge="1" parent="1" target="jn1oiLaQo4bSt4MqMUwo-56">
          <mxGeometry relative="1" as="geometry">
            <mxPoint x="354" y="1585" as="sourcePoint" />
          </mxGeometry>
        </mxCell>
        <mxCell id="jn1oiLaQo4bSt4MqMUwo-88" value="" style="edgeStyle=orthogonalEdgeStyle;rounded=0;orthogonalLoop=1;jettySize=auto;html=1;endArrow=classic;endFill=1;fontFamily=Times New Roman;fontSize=22;fontColor=#000000;" edge="1" parent="1" source="jn1oiLaQo4bSt4MqMUwo-89" target="jn1oiLaQo4bSt4MqMUwo-90">
          <mxGeometry relative="1" as="geometry" />
        </mxCell>
        <mxCell id="jn1oiLaQo4bSt4MqMUwo-89" value="混合网络" style="rounded=0;whiteSpace=wrap;html=1;fontFamily=Times New Roman;fontSize=22;fontColor=#000000;" vertex="1" parent="1">
          <mxGeometry x="130" y="1632" width="120" height="60" as="geometry" />
        </mxCell>
        <mxCell id="jn1oiLaQo4bSt4MqMUwo-103" style="edgeStyle=orthogonalEdgeStyle;rounded=0;orthogonalLoop=1;jettySize=auto;html=1;entryX=0.5;entryY=0;entryDx=0;entryDy=0;endArrow=classic;endFill=1;fontFamily=Times New Roman;fontSize=22;fontColor=#000000;" edge="1" parent="1" source="jn1oiLaQo4bSt4MqMUwo-90" target="jn1oiLaQo4bSt4MqMUwo-68">
          <mxGeometry relative="1" as="geometry" />
        </mxCell>
        <mxCell id="jn1oiLaQo4bSt4MqMUwo-90" value="多尺度特征结合" style="rounded=0;whiteSpace=wrap;html=1;fontFamily=Times New Roman;fontSize=22;fontColor=#000000;" vertex="1" parent="1">
          <mxGeometry x="130" y="1732" width="120" height="60" as="geometry" />
        </mxCell>
        <mxCell id="jn1oiLaQo4bSt4MqMUwo-91" value="" style="edgeStyle=orthogonalEdgeStyle;rounded=0;orthogonalLoop=1;jettySize=auto;html=1;endArrow=classic;endFill=1;fontFamily=Times New Roman;fontSize=22;fontColor=#000000;" edge="1" parent="1" target="jn1oiLaQo4bSt4MqMUwo-89">
          <mxGeometry relative="1" as="geometry">
            <mxPoint x="190" y="1585" as="sourcePoint" />
          </mxGeometry>
        </mxCell>
        <mxCell id="jn1oiLaQo4bSt4MqMUwo-99" value="手腕位置传感器数据" style="text;html=1;strokeColor=none;fillColor=none;align=center;verticalAlign=middle;whiteSpace=wrap;rounded=0;fontFamily=Times New Roman;fontSize=22;fontColor=#000000;" vertex="1" parent="1">
          <mxGeometry x="130" y="1451" width="135" height="20" as="geometry" />
        </mxCell>
        <mxCell id="jn1oiLaQo4bSt4MqMUwo-100" value="下肢位置传感器数据" style="text;html=1;strokeColor=none;fillColor=none;align=center;verticalAlign=middle;whiteSpace=wrap;rounded=0;fontFamily=Times New Roman;fontSize=22;fontColor=#000000;" vertex="1" parent="1">
          <mxGeometry x="286" y="1451" width="135" height="20" as="geometry" />
        </mxCell>
        <mxCell id="jn1oiLaQo4bSt4MqMUwo-101" value="" style="endArrow=classic;html=1;fontFamily=Times New Roman;fontSize=22;fontColor=#000000;entryX=0.5;entryY=0;entryDx=0;entryDy=0;" edge="1" parent="1" target="jn1oiLaQo4bSt4MqMUwo-64">
          <mxGeometry width="50" height="50" relative="1" as="geometry">
            <mxPoint x="500" y="1610" as="sourcePoint" />
            <mxPoint x="540" y="1580" as="targetPoint" />
          </mxGeometry>
        </mxCell>
        <mxCell id="jn1oiLaQo4bSt4MqMUwo-102" value="" style="endArrow=none;html=1;fontFamily=Times New Roman;fontSize=22;fontColor=#000000;" edge="1" parent="1">
          <mxGeometry width="50" height="50" relative="1" as="geometry">
            <mxPoint x="354" y="1610" as="sourcePoint" />
            <mxPoint x="500" y="1610" as="targetPoint" />
          </mxGeometry>
        </mxCell>
        <mxCell id="jn1oiLaQo4bSt4MqMUwo-104" value="特征提取与选择" style="rounded=0;whiteSpace=wrap;html=1;fontFamily=Times New Roman;fontSize=22;fontColor=#000000;" vertex="1" parent="1">
          <mxGeometry x="-17" y="1700" width="120" height="60" as="geometry" />
        </mxCell>
        <mxCell id="jn1oiLaQo4bSt4MqMUwo-105" value="" style="endArrow=none;html=1;fontFamily=Times New Roman;fontSize=22;fontColor=#000000;endFill=0;" edge="1" parent="1">
          <mxGeometry width="50" height="50" relative="1" as="geometry">
            <mxPoint x="42.5" y="1826" as="sourcePoint" />
            <mxPoint x="190" y="1826" as="targetPoint" />
          </mxGeometry>
        </mxCell>
        <mxCell id="jn1oiLaQo4bSt4MqMUwo-106" value="" style="endArrow=none;html=1;fontFamily=Times New Roman;fontSize=22;fontColor=#000000;entryX=0.5;entryY=1;entryDx=0;entryDy=0;" edge="1" parent="1" target="jn1oiLaQo4bSt4MqMUwo-104">
          <mxGeometry width="50" height="50" relative="1" as="geometry">
            <mxPoint x="43" y="1826" as="sourcePoint" />
            <mxPoint x="43" y="1780" as="targetPoint" />
          </mxGeometry>
        </mxCell>
        <mxCell id="jn1oiLaQo4bSt4MqMUwo-107" value="" style="endArrow=classic;html=1;fontFamily=Times New Roman;fontSize=22;fontColor=#000000;entryX=0.5;entryY=0;entryDx=0;entryDy=0;" edge="1" parent="1">
          <mxGeometry width="50" height="50" relative="1" as="geometry">
            <mxPoint x="42.660000000000025" y="1610" as="sourcePoint" />
            <mxPoint x="42.660000000000025" y="1700" as="targetPoint" />
          </mxGeometry>
        </mxCell>
        <mxCell id="jn1oiLaQo4bSt4MqMUwo-108" value="" style="endArrow=none;html=1;fontFamily=Times New Roman;fontSize=22;fontColor=#000000;" edge="1" parent="1">
          <mxGeometry width="50" height="50" relative="1" as="geometry">
            <mxPoint x="43" y="1610" as="sourcePoint" />
            <mxPoint x="189" y="1610" as="targetPoint" />
          </mxGeometry>
        </mxCell>
        <mxCell id="jn1oiLaQo4bSt4MqMUwo-111" value="数据分割" style="rounded=0;whiteSpace=wrap;html=1;fontFamily=Times New Roman;fontSize=22;fontColor=#000000;" vertex="1" parent="1">
          <mxGeometry x="130" y="1530" width="120" height="60" as="geometry" />
        </mxCell>
        <mxCell id="jn1oiLaQo4bSt4MqMUwo-114" value="数据分割" style="rounded=0;whiteSpace=wrap;html=1;fontFamily=Times New Roman;fontSize=22;fontColor=#000000;" vertex="1" parent="1">
          <mxGeometry x="294" y="1530" width="120" height="60" as="geometry" />
        </mxCell>
        <mxCell id="jn1oiLaQo4bSt4MqMUwo-115" style="edgeStyle=orthogonalEdgeStyle;rounded=0;orthogonalLoop=1;jettySize=auto;html=1;exitX=0.5;exitY=1;exitDx=0;exitDy=0;endArrow=classic;endFill=1;fontFamily=Times New Roman;fontSize=22;fontColor=#000000;" edge="1" parent="1" source="jn1oiLaQo4bSt4MqMUwo-100" target="jn1oiLaQo4bSt4MqMUwo-100">
          <mxGeometry relative="1" as="geometry" />
        </mxCell>
        <mxCell id="jn1oiLaQo4bSt4MqMUwo-119" value="" style="endArrow=classic;html=1;fontFamily=Times New Roman;fontSize=22;fontColor=#000000;" edge="1" parent="1">
          <mxGeometry width="50" height="50" relative="1" as="geometry">
            <mxPoint x="353" y="1490" as="sourcePoint" />
            <mxPoint x="353" y="1530" as="targetPoint" />
          </mxGeometry>
        </mxCell>
        <mxCell id="jn1oiLaQo4bSt4MqMUwo-120" value="" style="endArrow=classic;html=1;fontFamily=Times New Roman;fontSize=22;fontColor=#000000;" edge="1" parent="1">
          <mxGeometry width="50" height="50" relative="1" as="geometry">
            <mxPoint x="190" y="1490.9999999999998" as="sourcePoint" />
            <mxPoint x="190" y="1530.9999999999998" as="targetPoint" />
          </mxGeometry>
        </mxCell>
      </root>
    </mxGraphModel>
  </diagram>
</mxfile>
